PathFileType	4	(X/Y/Z)	5_2_43_p0_0-342_filt_butterworth.trc
DataRate	CameraRate	NumFrames	NumMarkers	Units	OrigDataRate	OrigDataStartFrame	OrigNumFrames
60.0	60.0	4	27	m	60.0	0	342
Frame#	Time	RHip			RKnee			RAnkle			RBigToe			RSmallToe			RHeel			LHip			LKnee			LAnkle			LBigToe			LSmallToe			LHeel			Neck			Head			Nose			RShoulder			RElbow			RWrist			RThumb			RIndex			RPinky			LShoulder			LElbow			LWrist			LThumb			LIndex			LPinky			
		X1	Y1	Z1	X2	Y2	Z2	X3	Y3	Z3	X4	Y4	Z4	X5	Y5	Z5	X6	Y6	Z6	X7	Y7	Z7	X8	Y8	Z8	X9	Y9	Z9	X10	Y10	Z10	X11	Y11	Z11	X12	Y12	Z12	X13	Y13	Z13	X14	Y14	Z14	X15	Y15	Z15	X16	Y16	Z16	X17	Y17	Z17	X18	Y18	Z18	X19	Y19	Z19	X20	Y20	Z20	X21	Y21	Z21	X22	Y22	Z22	X23	Y23	Z23	X24	Y24	Z24	X25	Y25	Z25	X26	Y26	Z26	X27	Y27	Z27	
0	0.0	0.3700626347900559	0.8144388218532201	0.7463009249104462	0.3868837180225624	0.3752441374674057	0.7351943960215679	0.3838412325049265	-0.04771184983914413	0.8059427759766471	0.3768822816265164	-0.008615495564710307	0.598138179845475	0.4229962505900713	-0.036600355689517916	0.6536831063115163	0.3695659495532172	-0.11867008912000458	0.8520321093626378	0.1687529169959018	0.7774753775111097	0.7287145537116434	0.1919118932645344	0.34274114362301844	0.7207065609559803	0.20414477383512047	-0.06745292645133927	0.7791346005073864	0.2124776359814941	-0.019298387846523407	0.5849619561987195	0.16237091455926006	-0.03641226927180455	0.6343784447213817	0.18751627102562302	-0.16435972052504566	0.8909223510645214	0.2200354223325078	1.3597747107758575	0.7402078136208334	0.22940282632124206	1.6240573460551615	0.7068134881060517	0.255308288466481	1.4819076405704257	0.6437569021512152	0.3872235470055364	1.2872220000025898	0.7577485774164852	0.43903707531701996	1.0304467929123513	0.7419944404218864	0.35123515707379044	0.9025456083876807	0.5457327470063046	0.32229811408979386	0.8236071422604498	0.49536652412662896	0.298624702254647	0.8038460598411068	0.5264295773827818	0.2825325477903053	0.7962526522000744	0.5271229550621379	0.09063050133203072	1.26968154278488	0.7172669012056045	0.10018587083981102	1.0171460392650447	0.6566501147842004	0.23751676285818057	0.8830359084411223	0.5609866681817208	0.3499466031484829	0.8402031084806503	0.510902126817289	0.35413752208625754	0.8383704765086373	0.48441566092599336	0.2974255963547883	0.8002766345613838	0.5218019400418039	
1	0.0166666666666666	0.37001611159772313	0.8142946562580975	0.7463158390599969	0.3878446727297044	0.3758689946792999	0.7357316959791915	0.3826427491747969	-0.04908612937101625	0.8088596159429092	0.37772468236755874	-0.012239491943824704	0.6009135885683111	0.4260047986018749	-0.04520320308733297	0.6674144203670267	0.3690140367268489	-0.11868113311119322	0.8531781631274618	0.16866448880275633	0.78304401575886	0.7224353705966087	0.1919344942234181	0.34502353066736835	0.7212246919399611	0.20424280353627353	-0.06807811135738996	0.780166616527072	0.2133660525057399	-0.025669453580868376	0.5913280211526308	0.1620892160046495	-0.03555445598571687	0.6346402657977247	0.18737514519900783	-0.1639254343340253	0.8914226862290244	0.2200281910709659	1.359791037770217	0.7402236511927192	0.22829559782197545	1.623653610046279	0.709249350007013	0.2552795641958021	1.4822124688807596	0.643779101342191	0.38770070516878213	1.287403862455498	0.7568331422788392	0.43725538829440497	1.032597067678323	0.7430182614188245	0.3522007465849033	0.9042428260908308	0.5444894422046659	0.32049145689853725	0.8196416384148842	0.5057313399547367	0.30176413113090994	0.8036704184122992	0.5295042349932053	0.28553010617611246	0.7926939006020643	0.5399308574469844	0.0906163902165065	1.2699018252982748	0.7172788749353645	0.1009748085990377	1.0147205586390733	0.6612476319313606	0.2366369280556323	0.881393835869155	0.5711801395144631	0.3494534523920175	0.839748679439424	0.5189871879304603	0.3532095876097357	0.8312077084442356	0.5055668427513398	0.2967793216866149	0.7991157512605135	0.5322761866116121	
2	0.0333333333333333	0.36997675067750224	0.8143529921639694	0.7463347773391078	0.3887109639618557	0.3763083312053981	0.7361465205502795	0.38159826510180467	-0.05039690384272384	0.8113468459193388	0.37818098755774077	-0.014255308183244941	0.6021947727983502	0.42772755785111655	-0.05018863263513851	0.6753093134565072	0.3687091799125871	-0.1188119736065191	0.8541342377641008	0.16858514514387554	0.7879190350674362	0.7170669082501607	0.1919235234002065	0.34712077102833117	0.7213551601970799	0.20433640656912863	-0.06863903641170602	0.7810782747895405	0.21400797898249121	-0.029369355330492744	0.5958367293813864	0.1620421965206348	-0.034615109362478164	0.6347884693182017	0.1872955337855103	-0.1637172005568752	0.8918756837953368	0.22002090806184732	1.3597985069995646	0.7402397546640866	0.22791854864853733	1.6235955612328137	0.7100446570958086	0.25526869257257423	1.482372950589228	0.6437929723938511	0.3878577831074917	1.2874321330748595	0.75661455264647	0.43699159192103953	1.0334080563537396	0.7438590048794617	0.35130027294626026	0.9040305581320073	0.5479474091937404	0.31788633706385616	0.8161497709828439	0.5165440528621786	0.3033950676985359	0.8027830670779599	0.5349930323080205	0.28761974805522666	0.790926757109965	0.5499344060596199	0.09063738483271357	1.2699714803172621	0.7172764390519962	0.10064877365023978	1.013810741543779	0.6623475693706886	0.23530393953449497	0.8799890357680484	0.5782949089464975	0.34654770243936034	0.8371352594210513	0.5306028667708653	0.34940134991258426	0.8237291595804128	0.5257490614525202	0.2966917242493079	0.7984309772559259	0.5410026789538769	
3	0.05	0.36994413165590434	0.8145875720573168	0.7463576261331442	0.3894871402820266	0.37657738479942104	0.7364488130797349	0.3806987136676306	-0.051643896987038376	0.8134365139396589	0.3783352099468313	-0.015004713567158781	0.6023238979704275	0.42842535933418485	-0.0522690414516995	0.6785252511593699	0.36862313974019295	-0.11905322572841534	0.8549253564263106	0.168514082159242	0.7921440440383605	0.7125448774602116	0.19188282720036914	0.3490380813153375	0.7211374535240135	0.204425409619641	-0.06913883824484686	0.7818764796133041	0.2143935189473005	-0.030972049812004118	0.5988082956837966	0.16217052830551165	-0.03365419831906945	0.634845684860138	0.18727087360190403	-0.16370970475498162	0.8922822431607135	0.2200137422727242	1.3597985100252077	0.7402560017516053	0.22814009913791078	1.6237794176526834	0.7095063686695964	0.25527322829714155	1.4823891702776764	0.6437919903521991	0.38777601526800504	1.287348242165177	0.7569144626150981	0.43791501803542904	1.0331447562277514	0.7445540032867903	0.34899081815449645	0.9023259609867137	0.5549278716531141	0.31471182744047194	0.8131767352056338	0.5272997355622608	0.30367704854370575	0.8014654278829263	0.5420071810025818	0.28882976708560015	0.7906241140892539	0.5574217740678131	0.09068227431281545	1.2699281856519615	0.7172641653984092	0.09936677264559612	1.0140443885757648	0.6609119373969348	0.2336547266230164	0.8788515071330041	0.582854449892877	0.3418734799196485	0.8331473098836103	0.5441905259469559	0.34358890538667375	0.816327906858384	0.5443913322261176	0.29696484925725486	0.7981615047917682	0.5480608034216491	
